<svg width="150" height="111" viewBox="0 0 150 111" fill="none" xmlns="http://www.w3.org/2000/svg">
<path d="M137.781 35.1559H131.181C131.331 33.3949 131.481 31.7598 131.556 30.3762C131.781 27.4832 129.006 25.0934 125.556 25.0934H6.00596C2.55596 25.0934 -0.14404 27.5461 0.00595989 30.3762C1.28096 49.0547 9.60596 110.625 65.781 110.625C97.581 110.625 114.081 90.877 122.556 70.3746H131.781C132.081 70.3746 140.856 70.3117 143.781 65.3434C146.706 60.2492 149.781 50.1867 149.781 45.2184C149.781 40.25 143.631 35.1559 137.781 35.1559ZM95.706 96.8516C87.381 102.638 77.331 105.593 65.781 105.593C54.231 105.593 44.181 102.638 35.856 96.8516C28.731 91.8832 22.656 84.6508 17.856 75.4688C9.08096 58.7398 6.68096 39.8727 6.08096 30.1246H125.631C124.956 39.8727 122.556 58.8027 113.856 75.5316C108.981 84.6508 102.906 91.8832 95.706 96.8516ZM138.381 63.1422C137.406 64.7773 133.431 65.3434 131.781 65.3434H126.606L133.581 40.1871H137.781C140.331 40.1871 143.781 43.0801 143.781 45.2184C143.781 49.3691 140.931 58.7398 138.381 63.1422Z" fill="#472727"/>
<path d="M115.806 35.1559H15.756C13.956 35.1559 12.606 36.4766 12.756 37.923C14.031 47.3566 16.806 61.1926 23.256 73.4562C24.531 75.9719 25.956 78.2988 27.456 80.4371C36.756 93.9586 49.356 100.562 65.781 100.562C82.206 100.562 94.806 93.9586 104.106 80.4371C105.606 78.2988 106.956 75.9719 108.306 73.4562C114.756 61.1926 117.531 47.3566 118.806 37.923C118.956 36.4766 117.531 35.1559 115.806 35.1559ZM117.306 37.7973C116.106 47.168 113.256 60.8152 106.881 72.9531C105.756 75.1543 104.481 77.2297 103.206 79.1793H28.356C27.081 77.2297 25.806 75.1543 24.681 72.9531C18.306 60.8152 15.531 47.168 14.331 37.7973C14.256 37.4199 14.406 37.1055 14.706 36.8539C15.006 36.6023 15.381 36.4137 15.831 36.4137H115.956C116.406 36.4137 116.706 36.5395 117.006 36.8539C117.231 37.1055 117.381 37.4199 117.306 37.7973Z" fill="#472727"/>
<path d="M107.106 49.9352C107.106 49.9352 105.831 49.5578 103.656 49.1176C102.531 48.866 101.181 48.6145 99.606 48.3629C98.031 48.1113 96.231 47.8598 94.281 47.6082C92.331 47.4195 90.156 47.2309 87.906 47.168C85.656 47.0422 83.256 47.1051 80.781 47.2309C78.306 47.3566 75.756 47.5453 73.206 47.7969C70.656 48.1113 68.031 48.4258 65.406 48.866C62.931 49.3062 60.381 49.6836 57.906 49.9352C55.431 50.2496 52.956 50.5012 50.556 50.627C49.356 50.6898 48.231 50.7527 47.031 50.8156C46.431 50.8156 45.831 50.8156 45.306 50.8785C44.781 50.8785 44.181 50.8785 43.656 50.8785C41.481 50.8785 39.381 50.8156 37.431 50.7527C35.481 50.6898 33.756 50.5641 32.181 50.5012C30.606 50.4383 29.256 50.3125 28.131 50.2496C25.881 50.0609 24.606 49.998 24.606 49.998C24.456 49.998 24.306 50.0609 24.231 50.1867C24.156 50.3754 24.231 50.5012 24.456 50.5641C24.456 50.5641 25.731 50.9414 27.906 51.3816C29.031 51.6332 30.381 51.8848 31.956 52.1363C33.531 52.3879 35.331 52.6394 37.281 52.891C39.231 53.0797 41.406 53.2684 43.656 53.3312C44.256 53.3312 44.781 53.3941 45.381 53.3941C45.981 53.3941 46.506 53.3941 47.106 53.3941C48.306 53.3941 49.506 53.3313 50.781 53.2684C53.256 53.1426 55.806 53.0168 58.356 52.7023C60.906 52.3879 63.531 52.0734 66.156 51.6332C68.631 51.193 71.181 50.8156 73.656 50.5641C76.131 50.2496 78.606 49.998 81.006 49.8723C83.406 49.6836 85.656 49.6207 87.906 49.6207C90.081 49.6207 92.181 49.6836 94.056 49.7465C96.006 49.8094 97.731 49.9352 99.306 49.998C100.881 50.0609 102.231 50.1867 103.356 50.2496C105.606 50.4383 106.881 50.5012 106.881 50.5012C107.031 50.5012 107.181 50.4383 107.256 50.3125C107.406 50.1867 107.331 49.998 107.106 49.9352Z" fill="#472727"/>
<path d="M101.106 57.482C101.106 57.482 100.056 57.1047 98.181 56.6645C97.206 56.4129 96.081 56.1613 94.731 55.9098C93.381 55.6582 91.881 55.4066 90.156 55.1551C88.506 54.9664 86.631 54.7777 84.681 54.652C82.731 54.5262 80.631 54.5891 78.531 54.7149C76.431 54.8406 74.181 55.0293 72.006 55.2809C69.756 55.5953 67.581 55.9098 65.331 56.35C63.306 56.7902 61.056 57.1676 58.956 57.4191C56.856 57.7336 54.756 57.9852 52.731 58.1109C51.681 58.1738 50.706 58.2367 49.731 58.2996C49.206 58.2996 48.756 58.2996 48.231 58.3625C47.781 58.3625 47.331 58.3625 46.806 58.3625C44.931 58.3625 43.131 58.2996 41.556 58.2367C39.906 58.1738 38.406 58.0481 37.056 57.9852C35.706 57.9223 34.581 57.7965 33.606 57.7336C31.656 57.5449 30.606 57.482 30.606 57.482C30.456 57.482 30.306 57.5449 30.231 57.6707C30.156 57.8594 30.231 58.0481 30.456 58.1109C30.456 58.1109 31.506 58.4883 33.381 58.9285C34.356 59.1801 35.481 59.4316 36.831 59.6832C38.181 59.9348 39.681 60.1863 41.406 60.4379C43.056 60.6266 44.931 60.8152 46.881 60.8781C47.406 60.8781 47.856 60.941 48.381 60.941C48.906 60.941 49.356 60.941 49.881 60.941C50.931 60.941 51.981 60.8781 53.031 60.8152C55.131 60.6895 57.381 60.5637 59.556 60.2492C61.806 59.9348 63.981 59.6203 66.231 59.1801C68.256 58.7398 70.506 58.3625 72.606 58.1109C74.706 57.7965 76.806 57.5449 78.831 57.4191C80.856 57.2305 82.806 57.1676 84.681 57.1676C85.656 57.1676 86.481 57.1676 87.381 57.2305C88.281 57.2305 89.106 57.2934 89.931 57.2934C91.581 57.3563 93.081 57.482 94.431 57.5449C95.781 57.6078 96.906 57.7336 97.881 57.7965C99.831 57.9852 100.881 58.048 100.881 58.048C101.031 58.048 101.181 57.9852 101.256 57.8594C101.406 57.7336 101.331 57.5449 101.106 57.482Z" fill="#472727"/>
<path d="M95.106 65.0289C95.106 65.0289 94.281 64.6516 92.706 64.2113C91.956 63.9598 90.981 63.7082 89.856 63.4566C88.731 63.2051 87.456 62.9535 86.106 62.702C84.681 62.5133 83.181 62.3246 81.531 62.1988C79.881 62.0731 78.156 62.1359 76.356 62.2617C74.556 62.3875 72.756 62.5762 70.881 62.8277C69.006 63.1422 67.206 63.4566 65.331 63.8969C63.681 64.3371 61.881 64.6516 60.156 64.966C58.431 65.2805 56.706 65.532 54.981 65.6578C54.156 65.7207 53.331 65.7836 52.581 65.8465C52.131 65.8465 51.756 65.8465 51.306 65.9094C50.931 65.9094 50.556 65.9094 50.181 65.9094C48.681 65.9094 47.181 65.8465 45.831 65.7836C44.481 65.7207 43.206 65.5949 42.081 65.532C40.956 65.4691 39.981 65.3434 39.231 65.2805C37.656 65.0918 36.681 65.0289 36.681 65.0289C36.531 65.0289 36.381 65.0918 36.306 65.2176C36.231 65.4063 36.306 65.5949 36.456 65.6578C36.456 65.6578 37.281 66.0352 38.856 66.4754C39.606 66.727 40.581 66.9785 41.706 67.2301C42.831 67.4816 44.106 67.7332 45.456 67.9848C46.881 68.1734 48.381 68.3621 50.031 68.4879C50.481 68.4879 50.856 68.5508 51.306 68.5508C51.681 68.5508 52.131 68.5508 52.581 68.5508C53.481 68.5508 54.381 68.4879 55.281 68.425C57.081 68.2992 58.881 68.1106 60.756 67.859C62.631 67.5445 64.431 67.2301 66.306 66.7898C67.956 66.3496 69.756 66.0352 71.481 65.7207C73.206 65.4063 74.931 65.1547 76.656 65.0289C78.306 64.8402 79.956 64.7774 81.456 64.7774C82.206 64.7774 82.956 64.7773 83.706 64.8402C84.456 64.8402 85.131 64.9031 85.806 64.9031C88.506 65.0289 90.831 65.2805 92.406 65.4691C93.981 65.6578 94.956 65.7207 94.956 65.7207C95.106 65.7207 95.256 65.6578 95.331 65.532C95.406 65.2805 95.331 65.0918 95.106 65.0289Z" fill="#472727"/>
<path d="M56.781 13.773C56.781 13.8988 56.781 14.0875 56.856 14.2133C56.931 14.5277 56.931 14.8422 57.006 15.1566C57.156 15.7227 57.306 16.2258 57.456 16.7289C57.831 17.6723 58.206 18.427 58.506 18.9301C58.656 19.1816 58.806 19.3703 58.881 19.4961C58.956 19.6219 59.031 19.6848 59.031 19.6848C59.181 19.8734 59.481 20.0621 59.781 19.9992C60.156 19.9363 60.456 19.6219 60.381 19.2445V19.1816C60.381 19.1816 60.306 18.8672 60.231 18.3641C60.156 17.8609 60.006 17.1063 59.856 16.2258C59.781 15.7855 59.706 15.3453 59.706 14.8422C59.706 14.5906 59.706 14.3391 59.706 14.1504C59.706 14.0246 59.706 13.8988 59.706 13.7102V13.5844V13.5215V13.3957C59.781 13.0184 59.931 12.7039 60.231 12.3266C60.531 11.9492 60.981 11.5719 61.506 10.943C61.731 10.6285 62.031 10.3141 62.256 9.87383C62.331 9.68516 62.406 9.49649 62.481 9.24492C62.556 9.05625 62.631 8.80469 62.631 8.61602C62.631 8.49024 62.706 8.36446 62.706 8.30157V8.05V7.79844V7.73555V7.67266V7.54688C62.706 7.23242 62.631 6.91797 62.556 6.60352C62.331 5.3457 62.031 4.27656 61.731 3.39609C61.431 2.45274 61.056 1.76094 60.831 1.19492C60.606 0.691798 60.456 0.377343 60.456 0.377343C60.306 0.12578 60.006 0 59.706 0C59.256 0.0628906 59.031 0.377343 59.031 0.691796C59.031 0.691796 59.106 1.00625 59.181 1.50938C59.256 2.0125 59.331 2.83008 59.481 3.71055C59.631 4.59102 59.706 5.66016 59.781 6.7293C59.781 6.98086 59.781 7.29531 59.781 7.54688C59.781 7.60977 59.706 8.17578 59.706 8.23867C59.631 8.36445 59.556 8.55313 59.481 8.7418C59.406 8.93047 59.256 9.11914 59.106 9.30781C58.731 9.68516 58.206 10.1883 57.681 10.8172C57.156 11.509 56.856 12.3895 56.856 13.1441V13.4586C56.856 13.5215 56.856 13.5215 56.856 13.6473L56.781 13.773Z" fill="#472727"/>
<path d="M62.781 13.6473V13.773C62.781 13.8988 62.781 14.0875 62.856 14.2133C62.931 14.5277 62.931 14.8422 63.006 15.1566C63.156 15.7227 63.306 16.2258 63.456 16.7289C63.831 17.6723 64.206 18.427 64.506 18.9301C64.656 19.1816 64.806 19.3703 64.881 19.4961C64.956 19.6219 65.031 19.6848 65.031 19.6848C65.181 19.8734 65.481 20.0621 65.781 19.9992C66.156 19.9363 66.456 19.6219 66.381 19.2445V19.1816C66.381 19.1816 66.306 18.8672 66.231 18.3641C66.156 17.8609 66.006 17.1063 65.856 16.2258C65.781 15.7855 65.706 15.3453 65.706 14.8422C65.706 14.5906 65.706 14.3391 65.706 14.1504C65.706 14.0246 65.706 13.8988 65.706 13.7102V13.5844V13.5215V13.3957C65.781 13.0184 65.931 12.7039 66.231 12.3266C66.531 11.9492 66.981 11.5719 67.506 10.943C67.731 10.6285 68.031 10.3141 68.256 9.87383C68.331 9.68516 68.406 9.49649 68.481 9.24492C68.556 9.05625 68.631 8.80469 68.631 8.61602C68.631 8.49024 68.706 8.36446 68.706 8.30157V8.05V7.79844V7.73555V7.67266V7.54688C68.706 7.23242 68.631 6.91797 68.556 6.60352C68.331 5.3457 68.031 4.27656 67.731 3.39609C67.431 2.45274 67.056 1.76094 66.831 1.19492C66.606 0.691798 66.456 0.377343 66.456 0.377343C66.306 0.12578 66.006 0 65.706 0C65.256 0.0628906 65.031 0.377343 65.031 0.691796C65.031 0.691796 65.106 1.00625 65.181 1.50938C65.256 2.0125 65.331 2.83008 65.481 3.71055C65.631 4.59102 65.706 5.66016 65.781 6.7293C65.781 6.98086 65.781 7.29531 65.781 7.54688C65.781 7.60977 65.706 8.17578 65.706 8.23867C65.631 8.36445 65.556 8.55313 65.481 8.7418C65.406 8.93047 65.256 9.11914 65.106 9.30781C64.731 9.68516 64.206 10.1883 63.681 10.8172C63.156 11.509 62.856 12.3895 62.856 13.1441V13.4586C62.781 13.5844 62.781 13.5844 62.781 13.6473Z" fill="#472727"/>
<path d="M68.781 13.6473V13.773C68.781 13.8988 68.781 14.0875 68.856 14.2133C68.931 14.5277 68.931 14.8422 69.006 15.1566C69.156 15.7227 69.306 16.2258 69.456 16.7289C69.831 17.6723 70.206 18.427 70.506 18.9301C70.656 19.1816 70.806 19.3703 70.881 19.4961C70.956 19.6219 71.031 19.6848 71.031 19.6848C71.181 19.8734 71.481 20.0621 71.781 19.9992C72.156 19.9363 72.456 19.6219 72.381 19.2445V19.1816C72.381 19.1816 72.306 18.8672 72.231 18.3641C72.156 17.8609 72.006 17.1063 71.856 16.2258C71.781 15.7855 71.706 15.3453 71.706 14.8422C71.706 14.5906 71.706 14.3391 71.706 14.1504C71.706 14.0246 71.706 13.8988 71.706 13.7102V13.5844V13.5215V13.3957C71.781 13.0184 71.931 12.7039 72.231 12.3266C72.531 11.9492 72.981 11.5719 73.506 10.943C73.731 10.6285 74.031 10.3141 74.256 9.87383C74.331 9.68516 74.406 9.49649 74.481 9.24492C74.556 9.05625 74.631 8.80469 74.631 8.61602C74.631 8.49024 74.706 8.36446 74.706 8.30157V8.05V7.79844V7.73555V7.67266V7.54688C74.706 7.23242 74.631 6.91797 74.556 6.60352C74.331 5.3457 74.031 4.27656 73.731 3.39609C73.431 2.45274 73.056 1.76094 72.831 1.19492C72.606 0.691798 72.456 0.377343 72.456 0.377343C72.306 0.12578 72.006 0 71.706 0C71.256 0.0628906 71.031 0.377343 71.031 0.691796C71.031 0.691796 71.106 1.00625 71.181 1.50938C71.256 2.0125 71.331 2.83008 71.481 3.71055C71.631 4.59102 71.706 5.66016 71.781 6.7293C71.781 6.98086 71.781 7.29531 71.781 7.54688C71.781 7.60977 71.706 8.17578 71.706 8.23867C71.631 8.36445 71.556 8.55313 71.481 8.7418C71.406 8.93047 71.256 9.11914 71.106 9.30781C70.731 9.68516 70.206 10.1883 69.681 10.8172C69.156 11.509 68.856 12.3895 68.856 13.1441V13.4586C68.781 13.5844 68.781 13.5844 68.781 13.6473Z" fill="#472727"/>
</svg>
